# xmcd CD database file
#
# Track frame offsets:
#	150
#	20375
#	37971
#	52458
#	71874
#	84261
#	102733
#	116385
#	135617
#	146011
#	171009
#	190539
#
# Disc length: 2755 seconds
#
# Revision: 0
# Processed by: cddbd v1.5PL3 Copyright (c) Steve Scherf et al.
# Submitted via: CDex 1.51
#
DISCID=a70ac10c
DTITLE=Jenna Mammina - Meant To Be
DYEAR=1900
DGENRE=Jazz
TTITLE0=Running To Stand Still
TTITLE1=Dirty Work
TTITLE2=Honeysuckle Rose
TTITLE3=The Same Things
TTITLE4=The More I See You
TTITLE5=A Love That Lasts
TTITLE6=In A Mellow Tone
TTITLE7=Distant Water
TTITLE8=Put 'Em In A Box
TTITLE9=Hope That I Don't Fall In Love With You
TTITLE10=You Can Close Your Eyes
TTITLE11=Lotus Blossom
EXTD=
EXTT0=
EXTT1=
EXTT2=
EXTT3=
EXTT4=
EXTT5=
EXTT6=
EXTT7=
EXTT8=
EXTT9=
EXTT10=
EXTT11=
PLAYORDER=
